Coordinates
version=1
nRows=65
nColumns=12
inDegrees=yes

Units are S.I. units (second, meters, Newtons, ...)
Angles are in degrees

endheader
time	SC_y	SC_z	SC_x	AC_y	AC_z	AC_x	GH_y	GH_z	GH_yy	EL_x	PS_y
       0.0              -53.18          19.13          45.01          52.42         -1.475         -10.63         -38.89          5.531         -23.88          29.63          57.81
   0.01859              -53.18          19.13           45.0          52.42         -1.475         -10.63         -38.86          5.539         -23.88          29.63          57.82
   0.03718              -53.18          19.14           45.0          52.42         -1.475         -10.63         -38.84          5.548         -23.87          29.63          57.82
   0.05578              -53.18          19.14          44.99          52.42         -1.475         -10.63         -38.81          5.558         -23.87          29.64          57.82
   0.07437              -53.18          19.14          44.99          52.42         -1.475         -10.63         -38.78          5.568         -23.87          29.64          57.83
   0.09296              -53.18          19.14          44.98          52.43         -1.475         -10.63         -38.75          5.579         -23.87          29.65          57.83
    0.1116              -53.17          19.14          44.98          52.43         -1.475         -10.63         -38.72          5.591         -23.86          29.65          57.83
    0.1301              -53.17          19.14          44.97          52.43         -1.475         -10.63         -38.69          5.603         -23.86          29.66          57.84
    0.1487              -53.17          19.14          44.97          52.43         -1.475         -10.63         -38.65          5.616         -23.86          29.66          57.84
    0.1673              -53.17          19.14          44.96          52.44         -1.475         -10.62         -38.61          5.631         -23.85          29.67          57.85
    0.1859              -53.16          19.14          44.95          52.44         -1.474         -10.62         -38.57          5.646         -23.85          29.67          57.85
    0.2045              -53.16          19.14          44.95          52.44         -1.474         -10.62         -38.52          5.662         -23.84          29.68          57.86
    0.2231              -53.16          19.15          44.94          52.45         -1.474         -10.62         -38.47           5.68         -23.84          29.69          57.87
    0.2417              -53.15          19.15          44.93          52.45         -1.474         -10.62         -38.42          5.699         -23.83          29.69          57.87
    0.2603              -53.15          19.15          44.92          52.46         -1.474         -10.62         -38.36           5.72         -23.83           29.7          57.88
    0.2789              -53.14          19.15          44.91          52.46         -1.474         -10.62          -38.3          5.743         -23.82          29.71          57.89
    0.2975              -53.14          19.15           44.9          52.47         -1.474         -10.62         -38.23          5.767         -23.81          29.72           57.9
    0.3161              -53.13          19.15          44.89          52.47         -1.473         -10.62         -38.16          5.794         -23.81          29.73          57.91
    0.3347              -53.13          19.16          44.87          52.48         -1.473         -10.62         -38.08          5.823          -23.8          29.74          57.92
    0.3532              -53.12          19.16          44.86          52.49         -1.473         -10.62         -37.99          5.855         -23.79          29.76          57.93
    0.3718              -53.12          19.16          44.84          52.49         -1.473         -10.61         -37.89           5.89         -23.78          29.77          57.94
    0.3904              -53.11          19.17          44.83           52.5         -1.472         -10.61         -37.78          5.929         -23.77          29.78          57.96
     0.409               -53.1          19.17          44.81          52.51         -1.472         -10.61         -37.66          5.971         -23.76           29.8          57.97
    0.4276              -53.09          19.17          44.79          52.52         -1.472         -10.61         -37.53          6.019         -23.75          29.82          57.99
    0.4462              -53.08          19.18          44.76          52.53         -1.471         -10.61         -37.39          6.071         -23.73          29.84          58.01
    0.4648              -53.07          19.18          44.74          52.55         -1.471          -10.6         -37.22           6.13         -23.71          29.86          58.03
    0.4834              -53.06          19.19          44.71          52.56          -1.47          -10.6         -37.04          6.195          -23.7          29.89          58.05
     0.502              -53.05          19.19          44.67          52.58          -1.47          -10.6         -36.84          6.269         -23.68          29.92          58.08
    0.5206              -53.03           19.2          44.64           52.6         -1.469          -10.6          -36.6          6.352         -23.65          29.95          58.11
    0.5392              -53.01          19.21          44.59          52.62         -1.468         -10.59         -36.34          6.447         -23.63          29.99          58.14
    0.5578              -52.99          19.21          44.55          52.64         -1.467         -10.59         -36.04          6.555          -23.6          30.03          58.18
    0.5764              -52.97          19.22          44.49          52.67         -1.466         -10.58          -35.7          6.679         -23.56          30.08          58.22
    0.5949              -52.94          19.24          44.43           52.7         -1.465         -10.58          -35.3          6.822         -23.52          30.14          58.27
    0.6135              -52.91          19.25          44.35          52.74         -1.464         -10.57         -34.83          6.989         -23.48           30.2          58.33
    0.6321              -52.87          19.26          44.26          52.78         -1.463         -10.56         -34.29          7.183         -23.42          30.28           58.4
    0.6507              -52.83          19.28          44.16          52.83         -1.461         -10.55         -33.66          7.413         -23.36          30.37          58.49
    0.6693              -52.78           19.3          44.04          52.89         -1.459         -10.54          -32.9          7.686         -23.29          30.47          58.58
    0.6879              -52.72          19.33          43.89          52.96         -1.456         -10.53         -31.99          8.013          -23.2           30.6           58.7
    0.7065              -52.65          19.36          43.71          53.05         -1.453         -10.51         -30.89          8.408         -23.09          30.76          58.84
    0.7251              -52.55           19.4           43.5          53.15         -1.449         -10.49         -29.55          8.891         -22.95          30.95          59.01
    0.7437              -52.44          19.45          43.23          53.28         -1.445         -10.47         -27.89          9.487         -22.79          31.18          59.23
    0.7623               -52.3           19.5           42.9          53.45         -1.439         -10.44         -25.82          10.23         -22.59          31.48          59.49
    0.7809              -52.13          19.58          42.48          53.65         -1.432          -10.4         -23.22          11.17         -22.33          31.84          59.83
    0.7995              -51.91          19.67          41.94          53.91         -1.423         -10.35         -19.91          12.36          -22.0          32.31          60.25
     0.818              -51.62          19.79          41.26          54.25         -1.411         -10.29         -15.67          13.88         -21.58          32.91           60.8
    0.8366              -51.25          19.95          40.38          54.68         -1.396         -10.21         -10.23          15.84         -21.04          33.68           61.5
    0.8552              -50.79          20.14          39.26          55.23         -1.376         -10.11         -3.286          18.34         -20.36          34.66          62.39
    0.8738               -50.2          20.39          37.85          55.92         -1.352         -9.983          5.447          21.48         -19.49           35.9          63.51
    0.8924              -49.48          20.69          36.13          56.76         -1.323         -9.828          16.09          25.31         -18.44           37.4          64.88
     0.911              -48.65          21.05          34.14          57.73         -1.288         -9.649          28.43          29.74         -17.22          39.15          66.47
    0.9296              -47.75          21.42          31.98          58.79         -1.251         -9.454          41.78          34.55         -15.89          41.04          68.18
    0.9482              -46.85           21.8          29.83          59.84         -1.214          -9.26          55.14          39.35         -14.57          42.93           69.9
    0.9668              -46.02          22.15          27.84          60.81          -1.18          -9.08          67.48          43.79         -13.35          44.67          71.49
    0.9854               -45.3          22.46          26.12          61.65          -1.15         -8.925          78.12          47.62          -12.3          46.18          72.85
     1.004              -44.71           22.7          24.71          62.34         -1.126         -8.798          86.85          50.76         -11.43          47.41          73.98
     1.023              -44.25           22.9          23.59          62.89         -1.107         -8.697           93.8          53.26         -10.75          48.39          74.87
     1.041              -43.88          23.06          22.71          63.32         -1.092         -8.618          99.24          55.21         -10.21          49.16          75.57
      1.06              -43.59          23.18          22.02          63.66          -1.08         -8.556          103.5          56.74         -9.788          49.76          76.11
     1.078              -43.37          23.27          21.49          63.92         -1.071         -8.508          106.8          57.93         -9.461          50.23          76.54
     1.097              -43.19          23.34          21.07          64.12         -1.064          -8.47          109.4          58.87         -9.203           50.6          76.87
     1.116              -43.06           23.4          20.74          64.29         -1.058          -8.44          111.5          59.61         -8.998          50.89          77.14
     1.134              -42.94          23.45          20.47          64.42         -1.053         -8.415          113.1          60.21         -8.834          51.12          77.35
     1.153              -42.85          23.49          20.25          64.52          -1.05         -8.396          114.5          60.69         -8.701          51.31          77.53
     1.171              -42.78          23.52          20.07          64.61         -1.046          -8.38          115.6          61.08         -8.592          51.47          77.67
      1.19              -42.72          23.55          19.93          64.68         -1.044         -8.367          116.5          61.41         -8.502           51.6          77.78
